<mxfile host="app.diagrams.net" agent="Mozilla/5.0 (Macintosh; Intel Mac OS X 10_15_7) AppleWebKit/537.36 (KHTML, like Gecko) Chrome/131.0.0.0 Safari/537.36" version="26.0.3">
  <diagram id="C5RBs43oDa-KdzZeNtuy" name="Page-1">
    <mxGraphModel dx="3434" dy="1580" grid="1" gridSize="10" guides="1" tooltips="1" connect="1" arrows="1" fold="1" page="1" pageScale="1" pageWidth="827" pageHeight="1169" math="0" shadow="0">
      <root>
        <mxCell id="WIyWlLk6GJQsqaUBKTNV-0" />
        <mxCell id="WIyWlLk6GJQsqaUBKTNV-1" parent="WIyWlLk6GJQsqaUBKTNV-0" />
        <mxCell id="goQG3fGVeVGxQmIEuO3C-0" value="Player" style="swimlane;fontStyle=1;align=center;verticalAlign=top;childLayout=stackLayout;horizontal=1;startSize=26;horizontalStack=0;resizeParent=1;resizeParentMax=0;resizeLast=0;collapsible=1;marginBottom=0;whiteSpace=wrap;html=1;" vertex="1" parent="WIyWlLk6GJQsqaUBKTNV-1">
          <mxGeometry x="90" y="20" width="160" height="160" as="geometry" />
        </mxCell>
        <mxCell id="goQG3fGVeVGxQmIEuO3C-1" value="+ playerName: String&lt;div&gt;+ playerPosition: Int&lt;/div&gt;" style="text;strokeColor=none;fillColor=none;align=left;verticalAlign=top;spacingLeft=4;spacingRight=4;overflow=hidden;rotatable=0;points=[[0,0.5],[1,0.5]];portConstraint=eastwest;whiteSpace=wrap;html=1;" vertex="1" parent="goQG3fGVeVGxQmIEuO3C-0">
          <mxGeometry y="26" width="160" height="54" as="geometry" />
        </mxCell>
        <mxCell id="goQG3fGVeVGxQmIEuO3C-2" value="" style="line;strokeWidth=1;fillColor=none;align=left;verticalAlign=middle;spacingTop=-1;spacingLeft=3;spacingRight=3;rotatable=0;labelPosition=right;points=[];portConstraint=eastwest;strokeColor=inherit;" vertex="1" parent="goQG3fGVeVGxQmIEuO3C-0">
          <mxGeometry y="80" width="160" height="8" as="geometry" />
        </mxCell>
        <mxCell id="goQG3fGVeVGxQmIEuO3C-3" value="+ Player(name, pos)&lt;div&gt;+ getPlayerName&lt;/div&gt;&lt;div&gt;+ getPlayerPosition&lt;/div&gt;" style="text;strokeColor=none;fillColor=none;align=left;verticalAlign=top;spacingLeft=4;spacingRight=4;overflow=hidden;rotatable=0;points=[[0,0.5],[1,0.5]];portConstraint=eastwest;whiteSpace=wrap;html=1;" vertex="1" parent="goQG3fGVeVGxQmIEuO3C-0">
          <mxGeometry y="88" width="160" height="72" as="geometry" />
        </mxCell>
        <mxCell id="goQG3fGVeVGxQmIEuO3C-4" value="Dice" style="swimlane;fontStyle=1;align=center;verticalAlign=top;childLayout=stackLayout;horizontal=1;startSize=26;horizontalStack=0;resizeParent=1;resizeParentMax=0;resizeLast=0;collapsible=1;marginBottom=0;whiteSpace=wrap;html=1;" vertex="1" parent="WIyWlLk6GJQsqaUBKTNV-1">
          <mxGeometry x="330" y="250" width="160" height="86" as="geometry" />
        </mxCell>
        <mxCell id="goQG3fGVeVGxQmIEuO3C-5" value="+ diceCount: Int" style="text;strokeColor=none;fillColor=none;align=left;verticalAlign=top;spacingLeft=4;spacingRight=4;overflow=hidden;rotatable=0;points=[[0,0.5],[1,0.5]];portConstraint=eastwest;whiteSpace=wrap;html=1;" vertex="1" parent="goQG3fGVeVGxQmIEuO3C-4">
          <mxGeometry y="26" width="160" height="26" as="geometry" />
        </mxCell>
        <mxCell id="goQG3fGVeVGxQmIEuO3C-6" value="" style="line;strokeWidth=1;fillColor=none;align=left;verticalAlign=middle;spacingTop=-1;spacingLeft=3;spacingRight=3;rotatable=0;labelPosition=right;points=[];portConstraint=eastwest;strokeColor=inherit;" vertex="1" parent="goQG3fGVeVGxQmIEuO3C-4">
          <mxGeometry y="52" width="160" height="8" as="geometry" />
        </mxCell>
        <mxCell id="goQG3fGVeVGxQmIEuO3C-7" value="+ Dice(diceCount)" style="text;strokeColor=none;fillColor=none;align=left;verticalAlign=top;spacingLeft=4;spacingRight=4;overflow=hidden;rotatable=0;points=[[0,0.5],[1,0.5]];portConstraint=eastwest;whiteSpace=wrap;html=1;" vertex="1" parent="goQG3fGVeVGxQmIEuO3C-4">
          <mxGeometry y="60" width="160" height="26" as="geometry" />
        </mxCell>
        <mxCell id="goQG3fGVeVGxQmIEuO3C-8" value="Cell" style="swimlane;fontStyle=1;align=center;verticalAlign=top;childLayout=stackLayout;horizontal=1;startSize=26;horizontalStack=0;resizeParent=1;resizeParentMax=0;resizeLast=0;collapsible=1;marginBottom=0;whiteSpace=wrap;html=1;" vertex="1" parent="WIyWlLk6GJQsqaUBKTNV-1">
          <mxGeometry x="-200" y="210" width="160" height="60" as="geometry" />
        </mxCell>
        <mxCell id="goQG3fGVeVGxQmIEuO3C-9" value="+ jump: Jump" style="text;strokeColor=none;fillColor=none;align=left;verticalAlign=top;spacingLeft=4;spacingRight=4;overflow=hidden;rotatable=0;points=[[0,0.5],[1,0.5]];portConstraint=eastwest;whiteSpace=wrap;html=1;" vertex="1" parent="goQG3fGVeVGxQmIEuO3C-8">
          <mxGeometry y="26" width="160" height="26" as="geometry" />
        </mxCell>
        <mxCell id="goQG3fGVeVGxQmIEuO3C-10" value="" style="line;strokeWidth=1;fillColor=none;align=left;verticalAlign=middle;spacingTop=-1;spacingLeft=3;spacingRight=3;rotatable=0;labelPosition=right;points=[];portConstraint=eastwest;strokeColor=inherit;" vertex="1" parent="goQG3fGVeVGxQmIEuO3C-8">
          <mxGeometry y="52" width="160" height="8" as="geometry" />
        </mxCell>
        <mxCell id="goQG3fGVeVGxQmIEuO3C-12" value="Jump" style="swimlane;fontStyle=1;align=center;verticalAlign=top;childLayout=stackLayout;horizontal=1;startSize=26;horizontalStack=0;resizeParent=1;resizeParentMax=0;resizeLast=0;collapsible=1;marginBottom=0;whiteSpace=wrap;html=1;" vertex="1" parent="WIyWlLk6GJQsqaUBKTNV-1">
          <mxGeometry x="-493" y="70" width="160" height="130" as="geometry" />
        </mxCell>
        <mxCell id="goQG3fGVeVGxQmIEuO3C-13" value="+ start: Int&lt;div&gt;+ end: Int&lt;/div&gt;" style="text;strokeColor=none;fillColor=none;align=left;verticalAlign=top;spacingLeft=4;spacingRight=4;overflow=hidden;rotatable=0;points=[[0,0.5],[1,0.5]];portConstraint=eastwest;whiteSpace=wrap;html=1;" vertex="1" parent="goQG3fGVeVGxQmIEuO3C-12">
          <mxGeometry y="26" width="160" height="44" as="geometry" />
        </mxCell>
        <mxCell id="goQG3fGVeVGxQmIEuO3C-14" value="" style="line;strokeWidth=1;fillColor=none;align=left;verticalAlign=middle;spacingTop=-1;spacingLeft=3;spacingRight=3;rotatable=0;labelPosition=right;points=[];portConstraint=eastwest;strokeColor=inherit;" vertex="1" parent="goQG3fGVeVGxQmIEuO3C-12">
          <mxGeometry y="70" width="160" height="8" as="geometry" />
        </mxCell>
        <mxCell id="goQG3fGVeVGxQmIEuO3C-15" value="+ getStart(): Int&lt;div&gt;+ getEnd(): Int&lt;/div&gt;" style="text;strokeColor=none;fillColor=none;align=left;verticalAlign=top;spacingLeft=4;spacingRight=4;overflow=hidden;rotatable=0;points=[[0,0.5],[1,0.5]];portConstraint=eastwest;whiteSpace=wrap;html=1;" vertex="1" parent="goQG3fGVeVGxQmIEuO3C-12">
          <mxGeometry y="78" width="160" height="52" as="geometry" />
        </mxCell>
        <mxCell id="goQG3fGVeVGxQmIEuO3C-16" value="Board" style="swimlane;fontStyle=1;align=center;verticalAlign=top;childLayout=stackLayout;horizontal=1;startSize=26;horizontalStack=0;resizeParent=1;resizeParentMax=0;resizeLast=0;collapsible=1;marginBottom=0;whiteSpace=wrap;html=1;" vertex="1" parent="WIyWlLk6GJQsqaUBKTNV-1">
          <mxGeometry x="-540" y="270" width="160" height="180" as="geometry" />
        </mxCell>
        <mxCell id="goQG3fGVeVGxQmIEuO3C-25" style="edgeStyle=orthogonalEdgeStyle;rounded=0;orthogonalLoop=1;jettySize=auto;html=1;" edge="1" parent="goQG3fGVeVGxQmIEuO3C-16" source="goQG3fGVeVGxQmIEuO3C-17">
          <mxGeometry relative="1" as="geometry">
            <mxPoint x="410" as="targetPoint" />
          </mxGeometry>
        </mxCell>
        <mxCell id="goQG3fGVeVGxQmIEuO3C-17" value="+ board: Cell[][]&lt;div&gt;+ boardSize: Int&lt;/div&gt;" style="text;strokeColor=none;fillColor=none;align=left;verticalAlign=top;spacingLeft=4;spacingRight=4;overflow=hidden;rotatable=0;points=[[0,0.5],[1,0.5]];portConstraint=eastwest;whiteSpace=wrap;html=1;" vertex="1" parent="goQG3fGVeVGxQmIEuO3C-16">
          <mxGeometry y="26" width="160" height="44" as="geometry" />
        </mxCell>
        <mxCell id="goQG3fGVeVGxQmIEuO3C-18" value="" style="line;strokeWidth=1;fillColor=none;align=left;verticalAlign=middle;spacingTop=-1;spacingLeft=3;spacingRight=3;rotatable=0;labelPosition=right;points=[];portConstraint=eastwest;strokeColor=inherit;" vertex="1" parent="goQG3fGVeVGxQmIEuO3C-16">
          <mxGeometry y="70" width="160" height="8" as="geometry" />
        </mxCell>
        <mxCell id="goQG3fGVeVGxQmIEuO3C-19" value="+ Board()&lt;div&gt;+ initializeBoard()&lt;/div&gt;&lt;div&gt;+ addSnakes()&lt;/div&gt;&lt;div&gt;+ addLadder()&lt;/div&gt;&lt;div&gt;+ getPosRowCol(position)&lt;/div&gt;&lt;div&gt;&lt;br&gt;&lt;/div&gt;" style="text;strokeColor=none;fillColor=none;align=left;verticalAlign=top;spacingLeft=4;spacingRight=4;overflow=hidden;rotatable=0;points=[[0,0.5],[1,0.5]];portConstraint=eastwest;whiteSpace=wrap;html=1;" vertex="1" parent="goQG3fGVeVGxQmIEuO3C-16">
          <mxGeometry y="78" width="160" height="102" as="geometry" />
        </mxCell>
        <mxCell id="goQG3fGVeVGxQmIEuO3C-27" style="edgeStyle=orthogonalEdgeStyle;rounded=0;orthogonalLoop=1;jettySize=auto;html=1;" edge="1" parent="WIyWlLk6GJQsqaUBKTNV-1" source="goQG3fGVeVGxQmIEuO3C-20" target="goQG3fGVeVGxQmIEuO3C-19">
          <mxGeometry relative="1" as="geometry" />
        </mxCell>
        <mxCell id="goQG3fGVeVGxQmIEuO3C-28" style="edgeStyle=orthogonalEdgeStyle;rounded=0;orthogonalLoop=1;jettySize=auto;html=1;" edge="1" parent="WIyWlLk6GJQsqaUBKTNV-1" source="goQG3fGVeVGxQmIEuO3C-20" target="goQG3fGVeVGxQmIEuO3C-3">
          <mxGeometry relative="1" as="geometry" />
        </mxCell>
        <mxCell id="goQG3fGVeVGxQmIEuO3C-20" value="Game" style="swimlane;fontStyle=1;align=center;verticalAlign=top;childLayout=stackLayout;horizontal=1;startSize=26;horizontalStack=0;resizeParent=1;resizeParentMax=0;resizeLast=0;collapsible=1;marginBottom=0;whiteSpace=wrap;html=1;" vertex="1" parent="WIyWlLk6GJQsqaUBKTNV-1">
          <mxGeometry x="-130" y="450" width="250" height="200" as="geometry" />
        </mxCell>
        <mxCell id="goQG3fGVeVGxQmIEuO3C-21" value="+ dice: Dice&lt;div&gt;+ players:List&amp;lt;Player&amp;gt;&lt;/div&gt;&lt;div&gt;+ playerQueue:LinkedList&amp;lt;Player&amp;gt;&lt;/div&gt;&lt;div&gt;+ board: Board&lt;/div&gt;&lt;div&gt;+ isWinner: boolean&lt;/div&gt;" style="text;strokeColor=none;fillColor=none;align=left;verticalAlign=top;spacingLeft=4;spacingRight=4;overflow=hidden;rotatable=0;points=[[0,0.5],[1,0.5]];portConstraint=eastwest;whiteSpace=wrap;html=1;" vertex="1" parent="goQG3fGVeVGxQmIEuO3C-20">
          <mxGeometry y="26" width="250" height="84" as="geometry" />
        </mxCell>
        <mxCell id="goQG3fGVeVGxQmIEuO3C-22" value="" style="line;strokeWidth=1;fillColor=none;align=left;verticalAlign=middle;spacingTop=-1;spacingLeft=3;spacingRight=3;rotatable=0;labelPosition=right;points=[];portConstraint=eastwest;strokeColor=inherit;" vertex="1" parent="goQG3fGVeVGxQmIEuO3C-20">
          <mxGeometry y="110" width="250" height="8" as="geometry" />
        </mxCell>
        <mxCell id="goQG3fGVeVGxQmIEuO3C-23" value="+ initializGame(totalPlayers, totalSnakes,totalLadder,diceCount,boardSize)&lt;div&gt;&amp;nbsp;&lt;/div&gt;&lt;div&gt;+ startGame()&lt;/div&gt;" style="text;strokeColor=none;fillColor=none;align=left;verticalAlign=top;spacingLeft=4;spacingRight=4;overflow=hidden;rotatable=0;points=[[0,0.5],[1,0.5]];portConstraint=eastwest;whiteSpace=wrap;html=1;" vertex="1" parent="goQG3fGVeVGxQmIEuO3C-20">
          <mxGeometry y="118" width="250" height="82" as="geometry" />
        </mxCell>
        <mxCell id="goQG3fGVeVGxQmIEuO3C-24" style="edgeStyle=orthogonalEdgeStyle;rounded=0;orthogonalLoop=1;jettySize=auto;html=1;entryX=1;entryY=0.5;entryDx=0;entryDy=0;" edge="1" parent="WIyWlLk6GJQsqaUBKTNV-1" source="goQG3fGVeVGxQmIEuO3C-9" target="goQG3fGVeVGxQmIEuO3C-13">
          <mxGeometry relative="1" as="geometry" />
        </mxCell>
        <mxCell id="goQG3fGVeVGxQmIEuO3C-26" style="edgeStyle=orthogonalEdgeStyle;rounded=0;orthogonalLoop=1;jettySize=auto;html=1;entryX=0.544;entryY=1.038;entryDx=0;entryDy=0;entryPerimeter=0;" edge="1" parent="WIyWlLk6GJQsqaUBKTNV-1" source="goQG3fGVeVGxQmIEuO3C-20" target="goQG3fGVeVGxQmIEuO3C-7">
          <mxGeometry relative="1" as="geometry">
            <Array as="points">
              <mxPoint x="-40" y="393" />
              <mxPoint x="417" y="393" />
            </Array>
          </mxGeometry>
        </mxCell>
        <mxCell id="goQG3fGVeVGxQmIEuO3C-33" value="Initialize Game:&lt;div&gt;&lt;br&gt;&lt;/div&gt;&lt;div&gt;totalPlayers&lt;/div&gt;&lt;div&gt;totalSnakes&lt;/div&gt;&lt;div&gt;totalLadders&lt;/div&gt;&lt;div&gt;diceCount&lt;/div&gt;&lt;div&gt;boardsSize&lt;/div&gt;&lt;div&gt;initializeRandom positon of snakes and ladder on board&lt;/div&gt;" style="rounded=0;whiteSpace=wrap;html=1;" vertex="1" parent="WIyWlLk6GJQsqaUBKTNV-1">
          <mxGeometry x="-810" y="920" width="180" height="160" as="geometry" />
        </mxCell>
        <mxCell id="goQG3fGVeVGxQmIEuO3C-35" value="" style="edgeStyle=elbowEdgeStyle;elbow=horizontal;endArrow=classic;html=1;curved=0;rounded=0;endSize=8;startSize=8;" edge="1" parent="WIyWlLk6GJQsqaUBKTNV-1">
          <mxGeometry width="50" height="50" relative="1" as="geometry">
            <mxPoint x="-630" y="999.5" as="sourcePoint" />
            <mxPoint x="-480" y="1000" as="targetPoint" />
            <Array as="points">
              <mxPoint x="-590" y="999.5" />
            </Array>
          </mxGeometry>
        </mxCell>
        <mxCell id="goQG3fGVeVGxQmIEuO3C-37" value="startGame" style="edgeLabel;html=1;align=center;verticalAlign=middle;resizable=0;points=[];" vertex="1" connectable="0" parent="goQG3fGVeVGxQmIEuO3C-35">
          <mxGeometry x="-0.1561" y="-3" relative="1" as="geometry">
            <mxPoint as="offset" />
          </mxGeometry>
        </mxCell>
        <mxCell id="goQG3fGVeVGxQmIEuO3C-39" style="edgeStyle=orthogonalEdgeStyle;rounded=0;orthogonalLoop=1;jettySize=auto;html=1;" edge="1" parent="WIyWlLk6GJQsqaUBKTNV-1" source="goQG3fGVeVGxQmIEuO3C-38">
          <mxGeometry relative="1" as="geometry">
            <mxPoint x="-230" y="1005" as="targetPoint" />
          </mxGeometry>
        </mxCell>
        <mxCell id="goQG3fGVeVGxQmIEuO3C-38" value="Get player from enqueue" style="rounded=0;whiteSpace=wrap;html=1;" vertex="1" parent="WIyWlLk6GJQsqaUBKTNV-1">
          <mxGeometry x="-480" y="970" width="100" height="70" as="geometry" />
        </mxCell>
        <mxCell id="goQG3fGVeVGxQmIEuO3C-42" style="edgeStyle=orthogonalEdgeStyle;rounded=0;orthogonalLoop=1;jettySize=auto;html=1;" edge="1" parent="WIyWlLk6GJQsqaUBKTNV-1" source="goQG3fGVeVGxQmIEuO3C-40" target="goQG3fGVeVGxQmIEuO3C-41">
          <mxGeometry relative="1" as="geometry" />
        </mxCell>
        <mxCell id="goQG3fGVeVGxQmIEuO3C-40" value="Get player current pos" style="rounded=0;whiteSpace=wrap;html=1;" vertex="1" parent="WIyWlLk6GJQsqaUBKTNV-1">
          <mxGeometry x="-230" y="970" width="100" height="70" as="geometry" />
        </mxCell>
        <mxCell id="goQG3fGVeVGxQmIEuO3C-41" value="Roll dice to set number of time and get sum of rolled dice" style="rounded=0;whiteSpace=wrap;html=1;" vertex="1" parent="WIyWlLk6GJQsqaUBKTNV-1">
          <mxGeometry x="-20" y="970" width="100" height="70" as="geometry" />
        </mxCell>
        <mxCell id="goQG3fGVeVGxQmIEuO3C-43" value="current pos+ diceSum" style="rounded=0;whiteSpace=wrap;html=1;" vertex="1" parent="WIyWlLk6GJQsqaUBKTNV-1">
          <mxGeometry x="180" y="970" width="100" height="70" as="geometry" />
        </mxCell>
        <mxCell id="goQG3fGVeVGxQmIEuO3C-52" style="edgeStyle=orthogonalEdgeStyle;rounded=0;orthogonalLoop=1;jettySize=auto;html=1;entryX=1;entryY=0.5;entryDx=0;entryDy=0;" edge="1" parent="WIyWlLk6GJQsqaUBKTNV-1" source="goQG3fGVeVGxQmIEuO3C-44" target="goQG3fGVeVGxQmIEuO3C-47">
          <mxGeometry relative="1" as="geometry" />
        </mxCell>
        <mxCell id="goQG3fGVeVGxQmIEuO3C-53" value="Same check Winer check" style="edgeLabel;html=1;align=center;verticalAlign=middle;resizable=0;points=[];" vertex="1" connectable="0" parent="goQG3fGVeVGxQmIEuO3C-52">
          <mxGeometry x="0.0026" y="2" relative="1" as="geometry">
            <mxPoint y="1" as="offset" />
          </mxGeometry>
        </mxCell>
        <mxCell id="goQG3fGVeVGxQmIEuO3C-54" style="edgeStyle=orthogonalEdgeStyle;rounded=0;orthogonalLoop=1;jettySize=auto;html=1;entryX=0.5;entryY=0;entryDx=0;entryDy=0;" edge="1" parent="WIyWlLk6GJQsqaUBKTNV-1" source="goQG3fGVeVGxQmIEuO3C-44" target="goQG3fGVeVGxQmIEuO3C-56">
          <mxGeometry relative="1" as="geometry">
            <mxPoint x="1070" y="1005" as="targetPoint" />
            <Array as="points">
              <mxPoint x="1071" y="755" />
              <mxPoint x="1071" y="920" />
              <mxPoint x="1170" y="920" />
            </Array>
          </mxGeometry>
        </mxCell>
        <mxCell id="goQG3fGVeVGxQmIEuO3C-44" value="check uf there&#39;s a jump on new positon snake or ladder return newPosition accordingly" style="rounded=0;whiteSpace=wrap;html=1;" vertex="1" parent="WIyWlLk6GJQsqaUBKTNV-1">
          <mxGeometry x="620" y="720" width="230" height="70" as="geometry" />
        </mxCell>
        <mxCell id="goQG3fGVeVGxQmIEuO3C-46" style="edgeStyle=orthogonalEdgeStyle;rounded=0;orthogonalLoop=1;jettySize=auto;html=1;" edge="1" parent="WIyWlLk6GJQsqaUBKTNV-1" source="goQG3fGVeVGxQmIEuO3C-45" target="goQG3fGVeVGxQmIEuO3C-47">
          <mxGeometry relative="1" as="geometry">
            <mxPoint x="465" y="1120" as="targetPoint" />
          </mxGeometry>
        </mxCell>
        <mxCell id="goQG3fGVeVGxQmIEuO3C-48" value="Yes" style="edgeLabel;html=1;align=center;verticalAlign=middle;resizable=0;points=[];" vertex="1" connectable="0" parent="goQG3fGVeVGxQmIEuO3C-46">
          <mxGeometry x="-0.1143" relative="1" as="geometry">
            <mxPoint as="offset" />
          </mxGeometry>
        </mxCell>
        <mxCell id="goQG3fGVeVGxQmIEuO3C-49" style="edgeStyle=orthogonalEdgeStyle;rounded=0;orthogonalLoop=1;jettySize=auto;html=1;" edge="1" parent="WIyWlLk6GJQsqaUBKTNV-1" source="goQG3fGVeVGxQmIEuO3C-45" target="goQG3fGVeVGxQmIEuO3C-44">
          <mxGeometry relative="1" as="geometry" />
        </mxCell>
        <mxCell id="goQG3fGVeVGxQmIEuO3C-50" value="No" style="edgeLabel;html=1;align=center;verticalAlign=middle;resizable=0;points=[];" vertex="1" connectable="0" parent="goQG3fGVeVGxQmIEuO3C-49">
          <mxGeometry x="0.04" y="-2" relative="1" as="geometry">
            <mxPoint as="offset" />
          </mxGeometry>
        </mxCell>
        <mxCell id="goQG3fGVeVGxQmIEuO3C-45" value="if currentPos+diceSum&amp;gt;boardSize*boardSize-1&lt;div&gt;&lt;br/&gt;&lt;/div&gt;" style="rounded=0;whiteSpace=wrap;html=1;" vertex="1" parent="WIyWlLk6GJQsqaUBKTNV-1">
          <mxGeometry x="330" y="980" width="270" height="50" as="geometry" />
        </mxCell>
        <mxCell id="goQG3fGVeVGxQmIEuO3C-47" value="Winner" style="ellipse;shape=doubleEllipse;whiteSpace=wrap;html=1;aspect=fixed;" vertex="1" parent="WIyWlLk6GJQsqaUBKTNV-1">
          <mxGeometry x="425" y="1100" width="80" height="80" as="geometry" />
        </mxCell>
        <mxCell id="goQG3fGVeVGxQmIEuO3C-59" style="edgeStyle=orthogonalEdgeStyle;rounded=0;orthogonalLoop=1;jettySize=auto;html=1;entryX=0.5;entryY=1;entryDx=0;entryDy=0;" edge="1" parent="WIyWlLk6GJQsqaUBKTNV-1" source="goQG3fGVeVGxQmIEuO3C-56" target="goQG3fGVeVGxQmIEuO3C-38">
          <mxGeometry relative="1" as="geometry">
            <Array as="points">
              <mxPoint x="1170" y="1250" />
              <mxPoint x="370" y="1250" />
              <mxPoint x="370" y="1060" />
              <mxPoint x="-430" y="1060" />
            </Array>
          </mxGeometry>
        </mxCell>
        <mxCell id="goQG3fGVeVGxQmIEuO3C-56" value="update player current position" style="rounded=0;whiteSpace=wrap;html=1;" vertex="1" parent="WIyWlLk6GJQsqaUBKTNV-1">
          <mxGeometry x="1120" y="960" width="100" height="70" as="geometry" />
        </mxCell>
        <mxCell id="goQG3fGVeVGxQmIEuO3C-57" style="edgeStyle=orthogonalEdgeStyle;rounded=0;orthogonalLoop=1;jettySize=auto;html=1;entryX=0.613;entryY=1.013;entryDx=0;entryDy=0;entryPerimeter=0;" edge="1" parent="WIyWlLk6GJQsqaUBKTNV-1" source="goQG3fGVeVGxQmIEuO3C-56" target="goQG3fGVeVGxQmIEuO3C-47">
          <mxGeometry relative="1" as="geometry" />
        </mxCell>
        <mxCell id="goQG3fGVeVGxQmIEuO3C-58" value="Same winner check" style="edgeLabel;html=1;align=center;verticalAlign=middle;resizable=0;points=[];" vertex="1" connectable="0" parent="goQG3fGVeVGxQmIEuO3C-57">
          <mxGeometry x="-0.1938" y="1" relative="1" as="geometry">
            <mxPoint as="offset" />
          </mxGeometry>
        </mxCell>
      </root>
    </mxGraphModel>
  </diagram>
</mxfile>
